<!-- <svg
    id="wave"
    className="transform rotate-180 transition duration-300 w-screen"
    viewBox="0 0 1440 380"
    xmlns="http://www.w3.org/2000/svg"
>
    <defs>
    <linearGradient id="sw-gradient-0" x1="0" x2="0" y1="1" y2="0">
        <stop stopColor="rgba(54, 40, 86, 1)" offset="0%" />
        <stop stopColor="rgba(54, 40, 86, 1)" offset="100%" />
    </linearGradient>
    </defs>
    <path
    className="transform translate-y-0 opacity-100"
    fill="url(#sw-gradient-0)"
    d="M0,114L48,95C96,76,192,38,288,38C384,38,480,76,576,76C672,76,768,38,864,50.7C960,63,1056,127,1152,133C1248,139,1344,89,1440,69.7C1536,51,1632,63,1728,69.7C1824,76,1920,76,2016,88.7C2112,101,2208,127,2304,126.7C2400,127,2496,101,2592,126.7C2688,152,2784,228,2880,240.7C2976,253,3072,203,3168,164.7C3264,127,3360,101,3456,76C3552,51,3648,25,3744,63.3C3840,101,3936,203,4032,247C4128,291,4224,279,4320,278.7C4416,279,4512,291,4608,259.7C4704,228,4800,152,4896,120.3C4992,89,5088,101,5184,120.3C5280,139,5376,165,5472,152C5568,139,5664,89,5760,82.3C5856,76,5952,114,6048,152C6144,190,6240,228,6336,253.3C6432,279,6528,291,6624,278.7C6720,266,6816,228,6864,209L6912,190L6912,380L6864,380C6816,380,6720,380,6624,380C6528,380,6432,380,6336,380C6240,380,6144,380,6048,380C5952,380,5856,380,5760,380C5664,380,5568,380,5472,380C5376,380,5280,380,5184,380C5088,380,4992,380,4896,380C4800,380,4704,380,4608,380C4512,380,4416,380,4320,380C4224,380,4128,380,4032,380C3936,380,3840,380,3744,380C3648,380,3552,380,3456,380C3360,380,3264,380,3168,380C3072,380,2976,380,2880,380C2784,380,2688,380,2592,380C2496,380,2400,380,2304,380C2208,380,2112,380,2016,380C1920,380,1824,380,1728,380C1632,380,1536,380,1440,380C1344,380,1248,380,1152,380C1056,380,960,380,864,380C768,380,672,380,576,380C480,380,384,380,288,380C192,380,96,380,48,380L0,380Z"
    />
</svg> -->

<svg id="wave" style="transform:rotate(180deg); transition: 0.3s" viewBox="0 0 1440 380" version="1.1" xmlns="http://www.w3.org/2000/svg">
    <defs>
    <linearGradient id="sw-gradient-0" x1="0" x2="0" y1="1" y2="0"><stop stop-color="rgba(54, 40, 86, 1)" offset="0%"></stop><stop stop-color="rgba(54, 40, 86, 1)" offset="100%"></stop></linearGradient>
    </defs>
    <path style="transform:translate(0, 0px); opacity:1" fill="url(#sw-gradient-0)" d="M0,114L48,95C96,76,192,38,288,38C384,38,480,76,576,76C672,76,768,38,864,50.7C960,63,1056,127,1152,133C1248,139,1344,89,1440,69.7C1536,51,1632,63,1728,69.7C1824,76,1920,76,2016,88.7C2112,101,2208,127,2304,126.7C2400,127,2496,101,2592,126.7C2688,152,2784,228,2880,240.7C2976,253,3072,203,3168,164.7C3264,127,3360,101,3456,76C3552,51,3648,25,3744,63.3C3840,101,3936,203,4032,247C4128,291,4224,279,4320,278.7C4416,279,4512,291,4608,259.7C4704,228,4800,152,4896,120.3C4992,89,5088,101,5184,120.3C5280,139,5376,165,5472,152C5568,139,5664,89,5760,82.3C5856,76,5952,114,6048,152C6144,190,6240,228,6336,253.3C6432,279,6528,291,6624,278.7C6720,266,6816,228,6864,209L6912,190L6912,380L6864,380C6816,380,6720,380,6624,380C6528,380,6432,380,6336,380C6240,380,6144,380,6048,380C5952,380,5856,380,5760,380C5664,380,5568,380,5472,380C5376,380,5280,380,5184,380C5088,380,4992,380,4896,380C4800,380,4704,380,4608,380C4512,380,4416,380,4320,380C4224,380,4128,380,4032,380C3936,380,3840,380,3744,380C3648,380,3552,380,3456,380C3360,380,3264,380,3168,380C3072,380,2976,380,2880,380C2784,380,2688,380,2592,380C2496,380,2400,380,2304,380C2208,380,2112,380,2016,380C1920,380,1824,380,1728,380C1632,380,1536,380,1440,380C1344,380,1248,380,1152,380C1056,380,960,380,864,380C768,380,672,380,576,380C480,380,384,380,288,380C192,380,96,380,48,380L0,380Z">
    </path>
</svg>