<svg width="1127" height="1281" viewBox="0 0 1127 1281" fill="none" xmlns="http://www.w3.org/2000/svg">
<path opacity="0.5" d="M368 1C368 1 355.657 95.7914 262.898 117.565C222.86 126.964 197.318 107.702 157.4 117.565C46.6003 144.941 11.8489 301.46 21.4778 411.72C30.6624 516.892 108.068 533.775 169.901 620.725C221.769 693.663 234.513 778.923 317.972 815.216C447.15 871.39 419.365 578.4 589.892 609.114C726.89 633.788 677.3 748.233 788.889 736.355C887.654 725.842 841.604 619.786 940.96 620.725C1026.17 621.53 1039.74 683.075 995.885 753.772C824.814 1029.54 130.401 677.814 130.401 1001C130.401 1076.57 243.973 1101.63 317.972 1084.7C414.596 1062.59 401.47 935.409 533.468 925.04C614.966 918.638 686.965 948.746 732.964 1001C778.963 1053.25 899.217 957.086 964.46 958.422C1029.7 959.759 1090.46 989.386 1107.96 1019.38C1131.45 1059.65 1135.48 1103.26 1098.96 1133.08C964.46 1242.9 0.402355 1144.69 47.4015 1296.12C76.5198 1389.94 287.792 1266.83 384.396 1296.12C475.106 1323.62 503.58 1356.2 577.892 1346.92C686.39 1333.37 657.338 1270.21 722.464 1265.64C801.394 1260.1 863.818 1290.21 901.461 1357.56C933.783 1415.4 947.308 1477.4 901.461 1525.93C699.89 1739.29 147.47 1420.21 28.9019 1641.56C-20.5973 1733.97 47.4015 1827.34 180.9 1827.34C256.427 1827.34 285.112 1751.83 360.397 1757.67C430.268 1763.09 474.25 1788.4 517.394 1841.85C559.441 1893.95 567.982 1938.89 564.393 2004.9C553.783 2200.06 171.907 1978.84 68.4025 2146.65C24.6445 2217.6 -23.2648 2277.88 14.9035 2351.79C40.2883 2400.94 74.0092 2428.19 129.901 2437.91C225.68 2454.56 219.162 2295.18 314.398 2275.83C427.75 2252.79 467.093 2395.42 582.893 2397.75C695.852 2400.02 742.403 2261.73 850.888 2292.28C928.12 2314.03 1008.79 2349.16 1002.88 2426.78C984.387 2670.13 234.657 2305.61 46.4025 2672.55C-23.0963 2808.02 145.375 2863.02 324.898 2858.82C439.954 2856.12 480.165 2832.81 593.393 2812.86C738.413 2787.3 886.87 2775.12 956.886 2840.92C1038.21 2917.34 1067.53 2966.22 1035.89 3060.08C989.886 3196.52 714.891 3024.28 483.395 3034.44C285.625 3043.12 -9.57061 3060.01 59.4023 3239.57C80.4019 3294.24 120.047 3317.19 201.4 3340.69C299.898 3369.14 358 3306.71 449.896 3310.21C554.452 3314.19 636.46 3271.18 700.39 3351.33C899.888 3601.46 -62.5577 3436.08 48.4025 3684.19C83.2297 3762.07 126.058 3811.56 201.4 3854.98C338.096 3933.76 497.611 3766.14 636.392 3841.43C684.519 3867.54 744.89 3929 744.89 3929" stroke="#D4CFDB" stroke-width="2" stroke-linecap="round" stroke-dasharray="16 16"/>
</svg>
